<svg width="40" height="40" viewBox="0 0 40 40" fill="none" xmlns="http://www.w3.org/2000/svg">
<path d="M20 40C31.0457 40 40 31.0457 40 20C40 8.95431 31.0457 0 20 0C8.95431 0 0 8.95431 0 20C0 31.0457 8.95431 40 20 40Z" fill="#004288"/>
<path fill-rule="evenodd" clip-rule="evenodd" d="M19.2446 28.7721H20.8143C20.8143 28.7721 21.2885 28.7201 21.5306 28.4591C21.7534 28.2195 21.7463 27.7696 21.7463 27.7696C21.7463 27.7696 21.7156 25.6633 22.6932 25.3531C23.6568 25.0476 24.8943 27.3888 26.206 28.289C27.1978 28.9703 27.9515 28.821 27.9515 28.821L31.4585 28.7721C31.4585 28.7721 33.2932 28.6591 32.4233 27.2166C32.352 27.0986 31.9167 26.1496 29.8157 24.1994C27.6167 22.1583 27.9112 22.4885 30.5601 18.9579C32.1734 16.8077 32.8183 15.495 32.6169 14.9328C32.4247 14.3973 31.2382 14.5388 31.2382 14.5388L27.2894 14.5634C27.2894 14.5634 26.9967 14.5235 26.7796 14.6533C26.5675 14.7805 26.4309 15.0772 26.4309 15.0772C26.4309 15.0772 25.8059 16.741 24.9724 18.1561C23.214 21.1419 22.511 21.2995 22.2236 21.1141C21.5552 20.682 21.722 19.3782 21.722 18.452C21.722 15.5585 22.1609 14.352 20.8674 14.0397C20.4382 13.9359 20.1223 13.8675 19.0246 13.8564C17.6156 13.8418 16.4231 13.8607 15.7478 14.1916C15.2986 14.4115 14.9521 14.9017 15.1631 14.9299C15.4241 14.9648 16.0152 15.0893 16.3286 15.516C16.7332 16.0665 16.719 17.3029 16.719 17.3029C16.719 17.3029 16.9514 20.7091 16.176 21.1323C15.6437 21.4225 14.9136 20.8299 13.346 18.1211C12.5427 16.7335 11.9363 15.1998 11.9363 15.1998C11.9363 15.1998 11.8193 14.9132 11.6108 14.7599C11.3577 14.5741 11.004 14.5149 11.004 14.5149L7.25163 14.5395C7.25163 14.5395 6.68833 14.5552 6.48154 14.8001C6.29758 15.018 6.46693 15.4686 6.46693 15.4686C6.46693 15.4686 9.40464 22.3416 12.731 25.8052C15.781 28.9807 19.2446 28.7721 19.2446 28.7721Z" fill="white"/>
</svg>
