<svg width="40" height="40" viewBox="0 0 40 40" fill="none" xmlns="http://www.w3.org/2000/svg">
<path d="M40 20C40 31.0458 31.0458 40 20 40C8.95416 40 0 31.0458 0 20C0 8.95416 8.95416 0 20 0C31.0458 0 40 8.95416 40 20Z" fill="#004288"/>
<path d="M25.6711 33.4766H14.4852C10.1382 33.4766 6.60156 29.9399 6.60156 25.593V14.407C6.60156 10.0601 10.1382 6.52344 14.4852 6.52344H25.6711C30.0183 6.52344 33.5547 10.0601 33.5547 14.407V24.5361C33.5547 25.1831 33.0301 25.708 32.3828 25.708C31.7355 25.708 31.2109 25.1831 31.2109 24.5361V14.407C31.2109 11.3522 28.7259 8.86719 25.6711 8.86719H14.4852C11.4304 8.86719 8.94531 11.3522 8.94531 14.407V25.593C8.94531 28.6478 11.4304 31.1328 14.4852 31.1328H25.6711C27.4197 31.1328 29.0292 30.3326 30.0879 28.9374C30.4791 28.4216 31.214 28.3209 31.7297 28.7119C32.2455 29.1031 32.3462 29.8383 31.9553 30.354C30.4495 32.3386 28.1592 33.4766 25.6711 33.4766Z" fill="white"/>
<path d="M20.0781 27.3242C16.0394 27.3242 12.7539 24.0387 12.7539 20C12.7539 15.9613 16.0394 12.6758 20.0781 12.6758C24.1168 12.6758 27.4023 15.9613 27.4023 20C27.4023 24.0387 24.1168 27.3242 20.0781 27.3242ZM20.0781 15.0195C17.3318 15.0195 15.0977 17.2537 15.0977 20C15.0977 22.7463 17.3318 24.9805 20.0781 24.9805C22.8244 24.9805 25.0586 22.7463 25.0586 20C25.0586 17.2537 22.8244 15.0195 20.0781 15.0195Z" fill="white"/>
<path d="M28.4201 12.7007C28.4201 13.2766 27.9535 13.7435 27.3776 13.7435C26.8018 13.7435 26.3348 13.2766 26.3348 12.7007C26.3348 12.1248 26.8018 11.6582 27.3776 11.6582C27.9535 11.6582 28.4201 12.1248 28.4201 12.7007Z" fill="white"/>
</svg>
