<svg width="119" height="52" viewBox="0 0 119 52" fill="none" xmlns="http://www.w3.org/2000/svg">
<path d="M116.052 35.1187H108.717L108.6 34.4505C108.929 34.2173 109.175 33.8856 109.303 33.5032C109.431 33.1209 109.434 32.7077 109.312 32.3236C109.19 31.9394 108.948 31.6041 108.623 31.3662C108.297 31.1282 107.904 31 107.501 31C107.098 31 106.705 31.1282 106.38 31.3662C106.054 31.6041 105.813 31.9394 105.691 32.3236C105.568 32.7077 105.571 33.1209 105.699 33.5032C105.827 33.8856 106.073 34.2173 106.402 34.4505L106.285 35.1187H99.2668C98.9309 35.1187 98.6086 35.2522 98.371 35.4898C98.1335 35.7274 98 36.0496 98 36.3856V46.2036C98.0008 46.4553 98.1011 46.6966 98.2791 46.8746C98.4571 47.0526 98.6984 47.1529 98.9501 47.1537H106.234V48.1038H104.334C104.25 48.1038 104.17 48.1372 104.11 48.1966C104.051 48.256 104.017 48.3365 104.017 48.4205V49.6874C104.017 49.7714 104.051 49.8519 104.11 49.9113C104.17 49.9707 104.25 50.0041 104.334 50.0041H110.668C110.752 50.0041 110.833 49.9707 110.892 49.9113C110.952 49.8519 110.985 49.7714 110.985 49.6874V48.4205C110.985 48.3365 110.952 48.256 110.892 48.1966C110.833 48.1372 110.752 48.1038 110.668 48.1038H108.768V47.1537H116.052C116.304 47.1529 116.545 47.0526 116.723 46.8746C116.901 46.6966 117.002 46.4553 117.003 46.2036V36.0689C117.002 35.8171 116.901 35.5759 116.723 35.3979C116.545 35.2198 116.304 35.1195 116.052 35.1187ZM106.234 32.9018C106.234 32.6512 106.309 32.4063 106.448 32.198C106.587 31.9896 106.785 31.8273 107.016 31.7314C107.248 31.6355 107.503 31.6104 107.748 31.6593C107.994 31.7082 108.22 31.8288 108.397 32.006C108.574 32.1832 108.695 32.4089 108.744 32.6546C108.793 32.9004 108.768 33.1551 108.672 33.3866C108.576 33.6181 108.413 33.8159 108.205 33.9551C107.997 34.0943 107.752 34.1686 107.501 34.1686C107.165 34.1686 106.843 34.0351 106.605 33.7976C106.368 33.56 106.234 33.2378 106.234 32.9018ZM108.075 35.1187H106.928L106.995 34.7324C107.326 34.8253 107.677 34.8253 108.008 34.7324L108.075 35.1187ZM110.352 48.7372V49.3707H104.651V48.7372H110.352ZM106.868 48.1038V47.1537H108.135V48.1038H106.868ZM116.369 46.2036C116.369 46.2876 116.336 46.3681 116.276 46.4275C116.217 46.4869 116.136 46.5203 116.052 46.5203H98.9501C98.8661 46.5203 98.7856 46.4869 98.7262 46.4275C98.6668 46.3681 98.6334 46.2876 98.6334 46.2036V45.8869H116.369V46.2036ZM116.369 45.2534H98.6334V36.3856C98.6339 36.2177 98.7008 36.0569 98.8195 35.9382C98.9382 35.8196 99.099 35.7527 99.2668 35.7522H116.052C116.136 35.7522 116.217 35.7855 116.276 35.8449C116.336 35.9043 116.369 35.9849 116.369 36.0689V45.2534Z" fill="#1A85F8"/>
<path d="M107.5 33.8514C107.688 33.8514 107.872 33.7957 108.028 33.6913C108.184 33.5869 108.306 33.4385 108.378 33.2649C108.45 33.0913 108.469 32.9002 108.432 32.7159C108.395 32.5316 108.305 32.3623 108.172 32.2295C108.039 32.0966 107.87 32.0061 107.685 31.9694C107.501 31.9328 107.31 31.9516 107.136 32.0235C106.963 32.0954 106.814 32.2172 106.71 32.3734C106.606 32.5297 106.55 32.7134 106.55 32.9013C106.55 33.1533 106.65 33.395 106.828 33.5731C107.006 33.7513 107.248 33.8514 107.5 33.8514ZM107.5 32.5846C107.563 32.5846 107.624 32.6032 107.676 32.638C107.728 32.6728 107.769 32.7222 107.793 32.7801C107.817 32.838 107.823 32.9017 107.811 32.9631C107.798 33.0245 107.768 33.081 107.724 33.1252C107.68 33.1695 107.623 33.1997 107.562 33.2119C107.5 33.2241 107.437 33.2179 107.379 33.1939C107.321 33.1699 107.272 33.1293 107.237 33.0773C107.202 33.0252 107.183 32.9639 107.183 32.9013C107.183 32.8173 107.217 32.7367 107.276 32.6774C107.336 32.618 107.416 32.5846 107.5 32.5846Z" fill="#1A85F8"/>
<path d="M115.734 36.0684H99.2656C99.1816 36.0684 99.101 36.1017 99.0416 36.1611C98.9822 36.2205 98.9489 36.3011 98.9489 36.3851V44.6195C98.9489 44.7035 98.9822 44.7841 99.0416 44.8435C99.101 44.9029 99.1816 44.9362 99.2656 44.9362H115.734C115.818 44.9362 115.899 44.9029 115.958 44.8435C116.018 44.7841 116.051 44.7035 116.051 44.6195V36.3851C116.051 36.3011 116.018 36.2205 115.958 36.1611C115.899 36.1017 115.818 36.0684 115.734 36.0684ZM106.68 44.3028H100.849V43.9861C100.85 43.7343 100.95 43.4931 101.128 43.3151C101.306 43.1371 101.547 43.0367 101.799 43.036H102.274L103.129 44.1761C103.159 44.2155 103.197 44.2474 103.241 44.2694C103.285 44.2914 103.334 44.3028 103.383 44.3028C103.432 44.3028 103.48 44.2914 103.524 44.2694C103.568 44.2474 103.607 44.2155 103.636 44.1761L104.491 43.036H105.182L105.742 43.435C105.777 43.4614 105.817 43.4799 105.86 43.4892C105.903 43.4985 105.947 43.4984 105.989 43.4889C106.032 43.4807 106.073 43.4635 106.108 43.4383C106.144 43.4132 106.173 43.3808 106.195 43.3432L106.67 42.5736L107.357 43.0866L106.68 44.3028ZM102.116 39.2355H104.65V40.1856C104.65 40.5216 104.516 40.8438 104.279 41.0814C104.041 41.3189 103.719 41.4524 103.383 41.4524C103.047 41.4524 102.725 41.3189 102.487 41.0814C102.249 40.8438 102.116 40.5216 102.116 40.1856V39.2355ZM101.207 38.602C101.258 38.3971 101.361 38.2085 101.504 38.0536C101.648 37.8987 101.829 37.7826 102.029 37.716C102.23 37.6494 102.444 37.6344 102.652 37.6725C102.859 37.7105 103.054 37.8004 103.218 37.9338C103.256 37.9635 103.299 37.9843 103.346 37.9947C103.392 38.0051 103.441 38.0049 103.487 37.994C103.557 37.9783 103.628 37.9698 103.699 37.9686C103.896 37.9692 104.087 38.0303 104.248 38.1436C104.408 38.257 104.53 38.4171 104.596 38.602H101.207ZM102.819 42.4025L102.895 42.0193C103.214 42.108 103.551 42.108 103.871 42.0193L103.947 42.4025H102.819ZM103.699 43.036L103.383 43.4572L103.066 43.036H103.699ZM107.003 42.032L107.107 41.8641C107.16 41.7776 107.243 41.7142 107.341 41.6866C107.438 41.659 107.543 41.6693 107.633 41.7153C107.682 41.74 107.725 41.7743 107.761 41.8161C107.796 41.8579 107.822 41.9064 107.839 41.9587C107.855 42.011 107.861 42.066 107.855 42.1205C107.85 42.175 107.833 42.2278 107.807 42.2759L107.668 42.5261L107.003 42.032ZM115.418 44.3028H107.405L108.361 42.5831C108.43 42.4608 108.473 42.3257 108.487 42.1862C108.501 42.0468 108.486 41.9059 108.444 41.7723C108.399 41.6224 108.318 41.4855 108.209 41.3732L109.365 39.0613L108.802 38.7762L107.658 41.0629C107.45 41.019 107.233 41.0405 107.038 41.1244C106.842 41.2083 106.677 41.3505 106.566 41.5316L105.834 42.7224L105.467 42.4627C105.414 42.4228 105.349 42.4016 105.283 42.4025H104.593L104.463 41.747C104.716 41.5724 104.922 41.3391 105.065 41.0672C105.208 40.7953 105.283 40.4928 105.283 40.1856V38.9187C105.283 38.7108 105.242 38.5049 105.162 38.3127C105.083 38.1206 104.966 37.9461 104.819 37.799C104.672 37.652 104.498 37.5353 104.305 37.4557C104.113 37.3762 103.907 37.3352 103.699 37.3352C103.631 37.3359 103.562 37.3412 103.494 37.351C103.182 37.1343 102.812 37.0182 102.433 37.0185C101.929 37.0185 101.445 37.2187 101.089 37.5751C100.733 37.9314 100.532 38.4148 100.532 38.9187C100.532 39.0027 100.566 39.0833 100.625 39.1427C100.685 39.2021 100.765 39.2355 100.849 39.2355H101.483V40.1856C101.483 40.4928 101.558 40.7953 101.701 41.0672C101.843 41.3391 102.05 41.5724 102.303 41.747L102.173 42.4025H101.799C101.379 42.4025 100.976 42.5694 100.679 42.8664C100.383 43.1633 100.216 43.5661 100.216 43.9861V44.3028H99.5823V36.7018H115.418V44.3028Z" fill="#1A85F8"/>
<path d="M109.717 37.335H112.251V37.9684H109.717V37.335Z" fill="#1A85F8"/>
<path d="M112.884 37.335H114.784V37.9684H112.884V37.335Z" fill="#1A85F8"/>
<path d="M109.717 38.6016H110.984V39.235H109.717V38.6016Z" fill="#1A85F8"/>
<path d="M111.617 38.6016H114.784V39.235H111.617V38.6016Z" fill="#1A85F8"/>
<path d="M109.717 39.8691H111.617V40.5026H109.717V39.8691Z" fill="#1A85F8"/>
<path d="M112.251 39.8691H114.784V40.5026H112.251V39.8691Z" fill="#1A85F8"/>
<path d="M109.717 41.1348H114.784V41.7682H109.717V41.1348Z" fill="#1A85F8"/>
<path d="M109.717 42.4023H114.784V43.0358H109.717V42.4023Z" fill="#1A85F8"/>
<path d="M14.735 28.28C12.2617 28.28 10.0333 27.7433 8.05 26.67C6.06667 25.5733 4.50333 24.0683 3.36 22.155C2.24 20.2417 1.68 18.1067 1.68 15.75C1.68 13.3933 2.24 11.2583 3.36 9.345C4.50333 7.43167 6.06667 5.93833 8.05 4.865C10.0333 3.76833 12.2617 3.22 14.735 3.22C17.185 3.22 19.4017 3.76833 21.385 4.865C23.3683 5.93833 24.92 7.43167 26.04 9.345C27.16 11.235 27.72 13.37 27.72 15.75C27.72 18.13 27.16 20.2767 26.04 22.19C24.92 24.08 23.3683 25.5733 21.385 26.67C19.4017 27.7433 17.185 28.28 14.735 28.28ZM14.735 25.165C16.5317 25.165 18.1417 24.7567 19.565 23.94C21.0117 23.1233 22.1433 22.0033 22.96 20.58C23.8 19.1333 24.22 17.5233 24.22 15.75C24.22 13.9767 23.8 12.3783 22.96 10.955C22.1433 9.50833 21.0117 8.37667 19.565 7.56C18.1417 6.74333 16.5317 6.335 14.735 6.335C12.9383 6.335 11.305 6.74333 9.835 7.56C8.38833 8.37667 7.245 9.50833 6.405 10.955C5.58833 12.3783 5.18 13.9767 5.18 15.75C5.18 17.5233 5.58833 19.1333 6.405 20.58C7.245 22.0033 8.38833 23.1233 9.835 23.94C11.305 24.7567 12.9383 25.165 14.735 25.165ZM42.4845 9.275C44.8412 9.275 46.7079 9.96333 48.0845 11.34C49.4845 12.6933 50.1845 14.6883 50.1845 17.325V28H46.8245V17.71C46.8245 15.9133 46.3929 14.56 45.5295 13.65C44.6662 12.74 43.4295 12.285 41.8195 12.285C39.9995 12.285 38.5645 12.8217 37.5145 13.895C36.4645 14.945 35.9395 16.4617 35.9395 18.445V28H32.5795V9.45H35.7995V12.25C36.4762 11.2933 37.3862 10.5583 38.5295 10.045C39.6962 9.53167 41.0145 9.275 42.4845 9.275ZM56.4028 2.03H59.7628V28H56.4028V2.03ZM66.1782 9.45H69.5382V28H66.1782V9.45ZM67.8582 5.88C67.2048 5.88 66.6565 5.67 66.2132 5.25C65.7932 4.83 65.5832 4.31667 65.5832 3.71C65.5832 3.10333 65.7932 2.59 66.2132 2.17C66.6565 1.72667 67.2048 1.505 67.8582 1.505C68.5115 1.505 69.0482 1.715 69.4682 2.135C69.9115 2.53166 70.1332 3.03333 70.1332 3.64C70.1332 4.27 69.9115 4.80667 69.4682 5.25C69.0482 5.67 68.5115 5.88 67.8582 5.88ZM85.8586 9.275C88.2152 9.275 90.0819 9.96333 91.4586 11.34C92.8586 12.6933 93.5586 14.6883 93.5586 17.325V28H90.1986V17.71C90.1986 15.9133 89.7669 14.56 88.9036 13.65C88.0402 12.74 86.8036 12.285 85.1936 12.285C83.3736 12.285 81.9386 12.8217 80.8886 13.895C79.8386 14.945 79.3136 16.4617 79.3136 18.445V28H75.9536V9.45H79.1736V12.25C79.8502 11.2933 80.7602 10.5583 81.9036 10.045C83.0702 9.53167 84.3886 9.275 85.8586 9.275ZM116.644 18.83C116.644 19.0867 116.621 19.425 116.574 19.845H101.524C101.734 21.4783 102.446 22.7967 103.659 23.8C104.896 24.78 106.424 25.27 108.244 25.27C110.461 25.27 112.246 24.5233 113.599 23.03L115.454 25.2C114.614 26.18 113.564 26.9267 112.304 27.44C111.068 27.9533 109.679 28.21 108.139 28.21C106.179 28.21 104.441 27.8133 102.924 27.02C101.408 26.2033 100.229 25.0717 99.3893 23.625C98.5727 22.1783 98.1643 20.545 98.1643 18.725C98.1643 16.9283 98.561 15.3067 99.3543 13.86C100.171 12.4133 101.279 11.2933 102.679 10.5C104.103 9.68333 105.701 9.275 107.474 9.275C109.248 9.275 110.823 9.68333 112.199 10.5C113.599 11.2933 114.684 12.4133 115.454 13.86C116.248 15.3067 116.644 16.9633 116.644 18.83ZM107.474 12.11C105.864 12.11 104.511 12.6 103.414 13.58C102.341 14.56 101.711 15.8433 101.524 17.43H113.424C113.238 15.8667 112.596 14.595 111.499 13.615C110.426 12.6117 109.084 12.11 107.474 12.11ZM7.982 50.156C6.63 50.156 5.33 49.9393 4.082 49.506C2.85133 49.0727 1.898 48.5007 1.222 47.79L1.976 46.308C2.63467 46.9667 3.51 47.504 4.602 47.92C5.694 48.3187 6.82067 48.518 7.982 48.518C9.61133 48.518 10.8333 48.2233 11.648 47.634C12.4627 47.0273 12.87 46.2473 12.87 45.294C12.87 44.566 12.6447 43.9853 12.194 43.552C11.7607 43.1187 11.2233 42.7893 10.582 42.564C9.94067 42.3213 9.048 42.0613 7.904 41.784C6.53467 41.4373 5.44267 41.108 4.628 40.796C3.81333 40.4667 3.11133 39.9727 2.522 39.314C1.95 38.6553 1.664 37.7627 1.664 36.636C1.664 35.7173 1.90667 34.8853 2.392 34.14C2.87733 33.3773 3.62267 32.7707 4.628 32.32C5.63333 31.8693 6.88133 31.644 8.372 31.644C9.412 31.644 10.426 31.7913 11.414 32.086C12.4193 32.3633 13.286 32.7533 14.014 33.256L13.364 34.79C12.6013 34.2873 11.7867 33.9147 10.92 33.672C10.0533 33.412 9.204 33.282 8.372 33.282C6.77733 33.282 5.57267 33.594 4.758 34.218C3.96067 34.8247 3.562 35.6133 3.562 36.584C3.562 37.312 3.77867 37.9013 4.212 38.352C4.66267 38.7853 5.21733 39.1233 5.876 39.366C6.552 39.5913 7.45333 39.8427 8.58 40.12C9.91467 40.4493 10.9893 40.7787 11.804 41.108C12.636 41.42 13.338 41.9053 13.91 42.564C14.482 43.2053 14.768 44.0807 14.768 45.19C14.768 46.1087 14.5167 46.9493 14.014 47.712C13.5287 48.4573 12.7747 49.0553 11.752 49.506C10.7293 49.9393 9.47267 50.156 7.982 50.156ZM24.2381 50.13C22.8861 50.13 21.6728 49.8353 20.5981 49.246C19.5408 48.6567 18.7088 47.8333 18.1021 46.776C17.4954 45.7013 17.1921 44.4967 17.1921 43.162C17.1921 41.8273 17.4954 40.6313 18.1021 39.574C18.7088 38.5167 19.5408 37.6933 20.5981 37.104C21.6728 36.5147 22.8861 36.22 24.2381 36.22C25.4168 36.22 26.4654 36.454 27.3841 36.922C28.3201 37.3727 29.0568 38.04 29.5941 38.924L28.2161 39.86C27.7654 39.184 27.1934 38.6813 26.5001 38.352C25.8068 38.0053 25.0528 37.832 24.2381 37.832C23.2501 37.832 22.3574 38.0573 21.5601 38.508C20.7801 38.9413 20.1648 39.5653 19.7141 40.38C19.2808 41.1947 19.0641 42.122 19.0641 43.162C19.0641 44.2193 19.2808 45.1553 19.7141 45.97C20.1648 46.7673 20.7801 47.3913 21.5601 47.842C22.3574 48.2753 23.2501 48.492 24.2381 48.492C25.0528 48.492 25.8068 48.3273 26.5001 47.998C27.1934 47.6687 27.7654 47.166 28.2161 46.49L29.5941 47.426C29.0568 48.31 28.3201 48.986 27.3841 49.454C26.4481 49.9047 25.3994 50.13 24.2381 50.13ZM39.9854 36.22C41.7014 36.22 43.062 36.7227 44.0674 37.728C45.09 38.716 45.6014 40.1633 45.6014 42.07V50H43.7554V42.252C43.7554 40.8307 43.4 39.7473 42.6894 39.002C41.9787 38.2567 40.9647 37.884 39.6474 37.884C38.174 37.884 37.004 38.326 36.1374 39.21C35.288 40.0767 34.8634 41.2813 34.8634 42.824V50H33.0174V30.708H34.8634V38.716C35.366 37.9187 36.0594 37.3033 36.9434 36.87C37.8274 36.4367 38.8414 36.22 39.9854 36.22ZM56.2538 50.13C54.9365 50.13 53.7492 49.8353 52.6918 49.246C51.6345 48.6393 50.8025 47.8073 50.1958 46.75C49.5892 45.6927 49.2858 44.4967 49.2858 43.162C49.2858 41.8273 49.5892 40.6313 50.1958 39.574C50.8025 38.5167 51.6345 37.6933 52.6918 37.104C53.7492 36.5147 54.9365 36.22 56.2538 36.22C57.5712 36.22 58.7585 36.5147 59.8158 37.104C60.8732 37.6933 61.6965 38.5167 62.2858 39.574C62.8925 40.6313 63.1958 41.8273 63.1958 43.162C63.1958 44.4967 62.8925 45.6927 62.2858 46.75C61.6965 47.8073 60.8732 48.6393 59.8158 49.246C58.7585 49.8353 57.5712 50.13 56.2538 50.13ZM56.2538 48.492C57.2245 48.492 58.0912 48.2753 58.8538 47.842C59.6338 47.3913 60.2405 46.7587 60.6738 45.944C61.1072 45.1293 61.3238 44.202 61.3238 43.162C61.3238 42.122 61.1072 41.1947 60.6738 40.38C60.2405 39.5653 59.6338 38.9413 58.8538 38.508C58.0912 38.0573 57.2245 37.832 56.2538 37.832C55.2832 37.832 54.4078 38.0573 53.6278 38.508C52.8652 38.9413 52.2585 39.5653 51.8078 40.38C51.3745 41.1947 51.1578 42.122 51.1578 43.162C51.1578 44.202 51.3745 45.1293 51.8078 45.944C52.2585 46.7587 52.8652 47.3913 53.6278 47.842C54.4078 48.2753 55.2832 48.492 56.2538 48.492ZM72.5546 50.13C71.2373 50.13 70.05 49.8353 68.9926 49.246C67.9353 48.6393 67.1033 47.8073 66.4966 46.75C65.89 45.6927 65.5866 44.4967 65.5866 43.162C65.5866 41.8273 65.89 40.6313 66.4966 39.574C67.1033 38.5167 67.9353 37.6933 68.9926 37.104C70.05 36.5147 71.2373 36.22 72.5546 36.22C73.872 36.22 75.0593 36.5147 76.1166 37.104C77.174 37.6933 77.9973 38.5167 78.5866 39.574C79.1933 40.6313 79.4966 41.8273 79.4966 43.162C79.4966 44.4967 79.1933 45.6927 78.5866 46.75C77.9973 47.8073 77.174 48.6393 76.1166 49.246C75.0593 49.8353 73.872 50.13 72.5546 50.13ZM72.5546 48.492C73.5253 48.492 74.392 48.2753 75.1546 47.842C75.9346 47.3913 76.5413 46.7587 76.9746 45.944C77.408 45.1293 77.6246 44.202 77.6246 43.162C77.6246 42.122 77.408 41.1947 76.9746 40.38C76.5413 39.5653 75.9346 38.9413 75.1546 38.508C74.392 38.0573 73.5253 37.832 72.5546 37.832C71.584 37.832 70.7086 38.0573 69.9286 38.508C69.166 38.9413 68.5593 39.5653 68.1086 40.38C67.6753 41.1947 67.4586 42.122 67.4586 43.162C67.4586 44.202 67.6753 45.1293 68.1086 45.944C68.5593 46.7587 69.166 47.3913 69.9286 47.842C70.7086 48.2753 71.584 48.492 72.5546 48.492ZM83.2654 30.708H85.1114V50H83.2654V30.708Z" fill="#1A85F8"/>
</svg>
