<svg width="65" height="65" viewBox="0 0 65 65" fill="none" xmlns="http://www.w3.org/2000/svg">
<path d="M65 32.5C65 50.4495 50.4495 65 32.5 65C14.5505 65 0 50.4495 0 32.5C0 14.5505 14.5505 0 32.5 0C50.4495 0 65 14.5505 65 32.5Z" fill="#1884F9"/>
<path d="M41.7155 54.3994H23.5384C16.4746 54.3994 10.7275 48.6523 10.7275 41.5886V23.4114C10.7275 16.3477 16.4746 10.6006 23.5384 10.6006H41.7155C48.7798 10.6006 54.5264 16.3477 54.5264 23.4114V39.8712C54.5264 40.9225 53.6739 41.7755 52.6221 41.7755C51.5702 41.7755 50.7178 40.9225 50.7178 39.8712V23.4114C50.7178 18.4474 46.6796 14.4092 41.7155 14.4092H23.5384C18.5743 14.4092 14.5361 18.4474 14.5361 23.4114V41.5886C14.5361 46.5526 18.5743 50.5908 23.5384 50.5908H41.7155C44.5571 50.5908 47.1725 49.2905 48.8928 47.0232C49.5286 46.1852 50.7227 46.0215 51.5608 46.6568C52.3989 47.2925 52.5626 48.4872 51.9273 49.3253C49.4805 52.5502 45.7587 54.3994 41.7155 54.3994Z" fill="white"/>
<path d="M32.627 44.4019C26.0641 44.4019 20.7251 39.0629 20.7251 32.5C20.7251 25.9371 26.0641 20.5981 32.627 20.5981C39.1898 20.5981 44.5288 25.9371 44.5288 32.5C44.5288 39.0629 39.1898 44.4019 32.627 44.4019ZM32.627 24.4067C28.1643 24.4067 24.5337 28.0373 24.5337 32.5C24.5337 36.9627 28.1643 40.5933 32.627 40.5933C37.0897 40.5933 40.7202 36.9627 40.7202 32.5C40.7202 28.0373 37.0897 24.4067 32.627 24.4067Z" fill="white"/>
<path d="M46.1827 20.6384C46.1827 21.5742 45.4245 22.3329 44.4887 22.3329C43.5529 22.3329 42.7942 21.5742 42.7942 20.6384C42.7942 19.7026 43.5529 18.9443 44.4887 18.9443C45.4245 18.9443 46.1827 19.7026 46.1827 20.6384Z" fill="white"/>
</svg>
