<svg width="65" height="65" viewBox="0 0 65 65" fill="none" xmlns="http://www.w3.org/2000/svg">
<path d="M32.5 65C50.4493 65 65 50.4493 65 32.5C65 14.5507 50.4493 0 32.5 0C14.5507 0 0 14.5507 0 32.5C0 50.4493 14.5507 65 32.5 65Z" fill="#1884F9"/>
<path d="M14.8714 31.7962L46.2069 19.7143C47.6612 19.1889 48.9314 20.0691 48.4602 22.2682L48.4629 22.2655L43.1275 47.4016C42.7321 49.1837 41.6731 49.617 40.1917 48.7774L32.0666 42.7893L28.1477 46.5647C27.7144 46.998 27.3487 47.3637 26.5091 47.3637L27.086 39.0951L42.1444 25.4912C42.7998 24.9143 41.9981 24.5893 41.1341 25.1634L22.5252 36.8797L14.5031 34.3772C12.7616 33.8247 12.7237 32.6357 14.8714 31.7962Z" fill="white"/>
</svg>
