<svg width="65" height="65" viewBox="0 0 65 65" fill="none" xmlns="http://www.w3.org/2000/svg">
<path d="M32.5 65C50.4493 65 65 50.4493 65 32.5C65 14.5507 50.4493 0 32.5 0C14.5507 0 0 14.5507 0 32.5C0 50.4493 14.5507 65 32.5 65Z" fill="#1884F9"/>
<path fill-rule="evenodd" clip-rule="evenodd" d="M31.2724 46.7543H33.8233C33.8233 46.7543 34.5938 46.6697 34.9872 46.2456C35.3492 45.8563 35.3377 45.1251 35.3377 45.1251C35.3377 45.1251 35.2878 41.7024 36.8764 41.1984C38.4424 40.7019 40.4533 44.5064 42.5847 45.9692C44.1964 47.0764 45.4211 46.8336 45.4211 46.8336L51.1201 46.7543C51.1201 46.7543 54.1014 46.5706 52.6878 44.2266C52.572 44.0348 51.8646 42.4926 48.4505 39.3236C44.8771 36.0069 45.3557 36.5433 49.6602 30.8061C52.2817 27.3121 53.3298 25.1789 53.0024 24.2653C52.6902 23.3951 50.7621 23.6251 50.7621 23.6251L44.3453 23.6651C44.3453 23.6651 43.8696 23.6002 43.5168 23.8111C43.1721 24.0179 42.9502 24.4999 42.9502 24.4999C42.9502 24.4999 41.9346 27.2037 40.5801 29.5032C37.7228 34.3552 36.5804 34.6112 36.1134 34.31C35.0271 33.6078 35.2983 31.4891 35.2983 29.984C35.2983 25.2821 36.0114 23.3216 33.9096 22.8141C33.2121 22.6455 32.6988 22.5342 30.915 22.5163C28.6254 22.4925 26.6875 22.5232 25.5902 23.0609C24.8602 23.4183 24.2971 24.2149 24.6401 24.2607C25.0642 24.3175 26.0247 24.5196 26.534 25.2131C27.1915 26.1076 27.1683 28.1168 27.1683 28.1168C27.1683 28.1168 27.5461 33.6518 26.286 34.3395C25.421 34.8111 24.2345 33.8482 21.6872 29.4464C20.3819 27.1916 19.3965 24.6992 19.3965 24.6992C19.3965 24.6992 19.2064 24.2334 18.8675 23.9843C18.4562 23.6825 17.8815 23.5863 17.8815 23.5863L11.7839 23.6263C11.7839 23.6263 10.8685 23.6518 10.5325 24.0498C10.2336 24.4038 10.5087 25.1361 10.5087 25.1361C10.5087 25.1361 15.2825 36.3046 20.6878 41.933C25.6441 47.0932 31.2724 46.7543 31.2724 46.7543Z" fill="white"/>
</svg>
