<svg width="65" height="65" viewBox="0 0 65 65" fill="none" xmlns="http://www.w3.org/2000/svg">
<path d="M32.5 0C14.5535 0 0 14.5535 0 32.5C0 50.4465 14.5535 65 32.5 65C50.4465 65 65 50.4465 65 32.5C65 14.5535 50.4465 0 32.5 0ZM47.3391 25.34C47.3535 25.6599 47.3605 25.9813 47.3605 26.3041C47.3605 36.1613 39.8573 47.5281 26.136 47.5286H26.1365H26.136C21.9232 47.5286 18.003 46.2938 14.7018 44.1777C15.2855 44.2466 15.8796 44.2809 16.4811 44.2809C19.9763 44.2809 23.1927 43.0887 25.7462 41.0877C22.4806 41.0272 19.7273 38.8705 18.7772 35.9064C19.2319 35.9937 19.6996 36.0413 20.1791 36.0413C20.86 36.0413 21.5195 35.9496 22.1464 35.7785C18.733 35.0951 16.1617 32.0785 16.1617 28.4663C16.1617 28.4325 16.1617 28.4023 16.1627 28.371C17.1679 28.9299 18.3175 29.2662 19.5414 29.3039C17.5384 27.9674 16.2217 25.6827 16.2217 23.0946C16.2217 21.7278 16.5912 20.4474 17.2319 19.345C20.9106 23.8588 26.4082 26.8273 32.6081 27.1392C32.4802 26.5927 32.4142 26.0234 32.4142 25.4382C32.4142 21.3202 35.7552 17.9792 39.8747 17.9792C42.0205 17.9792 43.9585 18.8863 45.3198 20.3363C47.0193 20.0011 48.6151 19.3802 50.0567 18.5257C49.4988 20.2669 48.3166 21.7278 46.7763 22.6517C48.2853 22.4712 49.7235 22.071 51.06 21.4769C50.0617 22.9731 48.7956 24.2872 47.3391 25.34Z" fill="#1884F9"/>
</svg>
