<svg width="38" height="58" viewBox="0 0 38 58" fill="none" xmlns="http://www.w3.org/2000/svg">
<path d="M20.8995 0H16.4388C7.22079 0 0 7.49274 0 17.058V40.9402C0 50.5064 7.22079 58 16.4388 58H20.8995C30.3287 58 38 50.3471 38 40.9402V17.058C38 7.65222 30.3287 0 20.8995 0ZM18.8274 8.93914H19.1726C19.7119 8.93914 20.151 9.3769 20.151 9.91503V16.8624C20.151 17.4005 19.7119 17.8383 19.1726 17.8383H18.8274C18.2881 17.8383 17.849 17.4005 17.849 16.8624V9.91503C17.849 9.3769 18.2881 8.93914 18.8274 8.93914ZM35.7636 40.9402C35.7636 49.117 29.0956 55.7694 20.8995 55.7694H16.4388C8.47471 55.7694 2.2364 49.2556 2.2364 40.9402V17.058C2.2364 8.74369 8.47485 2.2306 16.4388 2.2306H17.868V6.8545C16.5625 7.26256 15.6126 8.4802 15.6126 9.91517V16.8625C15.6126 18.2974 16.5625 19.5151 17.868 19.923V25.6621C17.868 26.278 18.3687 26.7774 18.9862 26.7774C19.6038 26.7774 20.1044 26.278 20.1044 25.6621V19.9311C21.4241 19.5317 22.3874 18.3074 22.3874 16.8625V9.91503C22.3874 8.47016 21.4241 7.24584 20.1044 6.84628V2.2306H20.8995C29.0956 2.2306 35.7636 8.88212 35.7636 17.058V40.9402Z" fill="white"/>
</svg>
