<svg width="24" height="31" viewBox="0 0 24 31" fill="none" xmlns="http://www.w3.org/2000/svg">
<path d="M23.7295 7.53155L16.3451 0.266104C16.1727 0.0964512 15.9375 0 15.6923 0H2.76923C1.24228 0 0 1.22226 0 2.72461V28.2754C0 29.7777 1.24228 31 2.76923 31H21.2308C22.7577 31 24 29.7777 24 28.2754V8.17383C24 7.92619 23.8943 7.69363 23.7295 7.53155ZM16.6154 3.10079L20.8484 7.26562H17.5385C17.0295 7.26562 16.6154 6.8582 16.6154 6.35742V3.10079ZM21.2308 29.1836H2.76923C2.26025 29.1836 1.84615 28.7762 1.84615 28.2754V2.72461C1.84615 2.22383 2.26025 1.81641 2.76923 1.81641H14.7692V6.35742C14.7692 7.85977 16.0115 9.08203 17.5385 9.08203H22.1538V28.2754C22.1538 28.7762 21.7398 29.1836 21.2308 29.1836Z" fill="white"/>
<path d="M17.5385 12.8359H6.46153C5.95174 12.8359 5.53845 13.2426 5.53845 13.7441C5.53845 14.2457 5.95174 14.6523 6.46153 14.6523H17.5385C18.0482 14.6523 18.4615 14.2457 18.4615 13.7441C18.4615 13.2426 18.0482 12.8359 17.5385 12.8359Z" fill="white"/>
<path d="M17.5385 16.4688H6.46153C5.95174 16.4688 5.53845 16.8754 5.53845 17.377C5.53845 17.8785 5.95174 18.2852 6.46153 18.2852H17.5385C18.0482 18.2852 18.4615 17.8785 18.4615 17.377C18.4615 16.8754 18.0482 16.4688 17.5385 16.4688Z" fill="white"/>
<path d="M17.5385 20.1016H6.46153C5.95174 20.1016 5.53845 20.5082 5.53845 21.0098C5.53845 21.5113 5.95174 21.918 6.46153 21.918H17.5385C18.0482 21.918 18.4615 21.5113 18.4615 21.0098C18.4615 20.5082 18.0482 20.1016 17.5385 20.1016Z" fill="white"/>
<path d="M13.8461 23.7344H6.46153C5.95174 23.7344 5.53845 24.141 5.53845 24.6426C5.53845 25.1441 5.95174 25.5508 6.46153 25.5508H13.8461C14.3559 25.5508 14.7692 25.1441 14.7692 24.6426C14.7692 24.141 14.3559 23.7344 13.8461 23.7344Z" fill="white"/>
</svg>
